<?xml version="1.0" standalone="no"?>
<!DOCTYPE svg PUBLIC "-//W3C//DTD SVG 1.0//EN" "http://www.w3.org/TR/2001/REC-SVG-20010904/DTD/svg10.dtd">
<svg xmlns="http://www.w3.org/2000/svg" xmlns:xlink="http://www.w3.org/1999/xlink" id="body_1" width="284" height="80">

<defs>
        <clipPath  id="1">

            <path clip-rule="evenodd" d="M0 0L284 0L284 80L0 80z" />        </clipPath>
            <clipPath  id="2">

                <path clip-rule="evenodd" d="M0 79.4283L0 0L283.769 0L283.769 79.4283z" />            </clipPath>
            <clipPath  id="3">

                <path clip-rule="evenodd" d="M0 79.4283L0 0L283.769 0L283.769 79.4283z" />            </clipPath>
            <clipPath  id="4">

                <path clip-rule="evenodd" d="M0 79.4283L0 0L283.769 0L283.769 79.4283z" />            </clipPath>
</defs>

<g transform="matrix(1.3333334 0 0 1.3333334 0 0)">
    <path d="M0 0L213 0L213 60L0 60z" stroke="none" fill="#FFFFFF" fill-rule="evenodd" />
	<g transform="matrix(0.75 0 0 -0.75 -0 60)" clip-path="url(#1)" >
        <path d="M0 0L284 0L284 80L0 80z" stroke="none" fill="none" />
        <path d="M0 0L284 0L284 80L0 80z" stroke="none" fill="none" />
        <path d="M0 0L284 0L284 80L0 80z" stroke="none" fill="none" />
        <path d="M0 0L284 0L284 80L0 80z" stroke="none" fill="none" />
        <path d="M0 0L284 0L284 80L0 80z" stroke="none" fill="none" />
        <path d="M0 79.4283L0 0L283.769 0L283.769 79.4283z" stroke="none" fill="none" />
        <path clip-path="url(#2)"  d="M283.769 45.4993C 275.399 50.831497 270.882 58.8206 270.234 69.4758L270.234 69.4758L267.784 69.4758L267.784 41.7493L262.404 41.7493L262.404 69.4758L259.953 69.4758C 259.412 58.8206 254.949 50.831497 246.577 45.4993L246.577 45.4993L246.577 49.251297C 251.47 54.1426 254.302 60.887 255.062 69.4758L255.062 69.4758L247.231 69.4758L247.231 73.0676L262.404 73.0676L262.404 79.4283L267.784 79.4283L267.784 73.0676L273.491 73.0676L273.491 77.961L278.384 77.961L278.384 73.0676L283.275 73.0676L283.275 69.4758L275.286 69.4758C 276.044 60.6713 278.871 53.9269 283.769 49.251297L283.769 49.251297L283.769 45.4993zM203.021 70.298L207.099 70.298L207.099 60.9978C 205.799 60.887 204.33 60.7266 202.695 60.510597L202.695 60.510597L202.695 56.267097C 203.347 56.3769 204.217 56.4829 205.303 56.5931C 206.174 56.809 206.773 56.9188 207.099 56.9188L207.099 56.9188L207.099 47.134197C 207.099 45.9377 206.5 45.3887 205.303 45.4993L205.303 45.4993L203.675 45.4993L203.675 42.0753L207.099 42.0753C 210.475 42.0753 212.158 43.7034 212.158 46.9688L212.158 46.9688L212.158 58.3888C 213.245 58.7147 214.06 59.043297 214.601 59.3693C 215.143 59.475 215.527 59.5854 215.743 59.690697L215.743 59.690697L215.743 63.1219C 214.443 62.795998 213.245 62.4674 212.158 62.141197L212.158 62.141197L212.158 70.298L215.424 70.298L215.424 73.5612L212.158 73.5612L212.158 79.2677L207.099 79.2677L207.099 73.5612L203.021 73.5612L203.021 70.298L203.021 70.298zM216.891 71.4395L216.891 74.8631L225.376 74.8631L225.376 79.4283L230.757 79.4283L230.757 74.8631L240.22 74.8631L240.22 71.4395L230.757 71.4395L230.757 65.7258L239.079 65.7258L239.079 62.2994C 237.339 56.9692 234.835 52.7855 231.572 49.7381C 233.965 47.8942 236.957 46.369198 240.542 45.172897L240.542 45.172897L240.542 41.9073C 235.545 43.322098 231.354 45.0121 227.985 46.9688C 224.722 45.1154 220.428 43.377197 215.095 41.7493L215.095 41.7493L215.095 45.0121C 219.015 46.4245 222.224 47.997498 224.722 49.7381C 221.785 52.5649 219.447 56.1567 217.706 60.505898L217.706 60.505898L222.926 60.505898C 224.451 57.4636 226.189 54.8545 228.146 52.6753C 230.326 54.957798 232.169 58.1659 233.692 62.2994L233.692 62.2994L217.052 62.2994L217.052 65.7258L225.376 65.7258L225.376 71.4395L216.891 71.4395L216.891 71.4395zM159.959 70.4563L164.205 70.4563C 163.224 64.9105 161.539 59.690697 159.146 54.7972L159.146 54.7972L159.146 49.7381C 161.428 53.001297 163.167 56.051 164.366 58.878L164.366 58.878L164.366 41.9073L169.099 41.9073L169.099 61.4866C 170.727 58.9813 172.249 56.9692 173.664 55.4517L173.664 55.4517L173.664 60.017097C 171.81 62.9541 170.35 66.4329 169.257 70.4563L169.257 70.4563L173.335 70.4563L173.335 73.8824L169.099 73.8824L169.099 79.4283L164.366 79.4283L164.366 73.8824L159.959 73.8824L159.959 70.4563L159.959 70.4563zM171.707 41.7493L171.707 45.6667C 174.542 48.1651 175.841 53.169296 175.625 60.6713L175.625 60.6713L175.625 77.4742L191.119 77.4742L191.119 47.7818C 191.009 46.5923 191.503 46.043198 192.586 46.1534C 193.569 46.1534 194.056 46.695698 194.056 47.7818L194.056 47.7818L194.056 49.0907L197.48 49.0907L197.48 47.134197C 197.59 44.3028 196.178 42.9456 193.241 43.0582L193.241 43.0582L190.79 43.0582C 187.527 42.9456 185.954 44.525497 186.057 47.7818L186.057 47.7818L186.057 74.0479L180.519 74.0479L180.519 60.9978C 180.957 51.6465 178.02 45.228397 171.707 41.7493L171.707 41.7493L171.707 41.7493zM129.3 62.7863C 128.974 61.9181 128.703 61.1582 128.487 60.505898L128.487 60.505898L133.704 60.505898C 135.335 57.2405 137.018 54.7421 138.759 53.001297C 141.154 55.4997 143.221 58.7651 144.959 62.7863L144.959 62.7863L129.3 62.7863L129.3 62.7863zM116.739 71.7653L116.739 75.1891L126.363 75.1891L126.849 79.4283L132.237 79.4283C 132.237 78.996796 132.182 78.2871 132.071 77.3138C 131.966 76.4433 131.856 75.7336 131.743 75.1891L131.743 75.1891L153.603 75.1891L153.603 71.7653L131.256 71.7653C 130.928 69.804 130.601 68.0083 130.275 66.3777L130.275 66.3777L150.507 66.3777L150.507 62.7863C 148.327 57.135 145.503 52.8908 142.022 50.064C 144.959 47.8942 148.711 46.2038 153.277 45.0121L153.277 45.0121L153.277 41.9073C 147.187 43.322098 142.293 45.172897 138.598 47.4554C 134.68 45.172897 129.787 43.271698 123.915 41.7493L123.915 41.7493L123.915 45.0121C 128.048 46.2038 131.856 47.8942 135.335 50.064C 132.613 52.7855 130.275 56.1567 128.319 60.177498C 126.252 54.5263 122.284 49.0356 116.41 43.7034L116.41 43.7034L116.41 47.7818C 121.848 54.957798 125.006 62.9541 125.876 71.7653L125.876 71.7653L116.739 71.7653L116.739 71.7653z" stroke="none" fill="#0A3BCF" fill-rule="evenodd" />
        <path clip-path="url(#3)"  d="M278.996 16.0197L282.319 16.0197L282.319 32.5256L278.996 32.5256L278.996 25.773197L278.996 25.2723L278.492 25.2723L270.489 25.2723L269.988 25.2723L269.988 25.773197L269.988 32.5256L266.789 32.5256L266.789 16.0197L269.988 16.0197L269.988 22.622898L269.988 23.123798L270.489 23.123798L278.492 23.123798L278.996 23.123798L278.996 22.622898L278.996 16.0197zM256.484 16.0197L263.71 16.0197L263.71 18.170399L257.083 18.170399C 256.426 18.170399 255.841 18.3358 255.326 18.6693C 254.822 18.993198 254.393 19.4701 254.045 20.1007L254.045 20.1007L254.045 20.1007C 253.755 20.616398 253.537 21.189 253.393 21.8176C 253.252 22.4357 253.18 23.105198 253.18 23.8241C 253.18 24.651299 253.235 25.409199 253.345 26.0971C 253.455 26.7925 253.621 27.4085 253.844 27.943398C 254.146 28.6674 254.549 29.221397 255.05 29.5951C 255.57 29.9837 256.182 30.1778 256.882 30.1778L256.882 30.1778L263.66 30.1778L263.66 32.5256L257.158 32.5256C 256.616 32.5256 256.079 32.4725 255.549 32.367C 255.012 32.2595 254.484 32.1009 253.971 31.890099L253.971 31.890099L253.971 31.890099C 253.329 31.623898 252.756 31.239998 252.254 30.741398C 251.746 30.230598 251.312 29.604698 250.957 28.859398L250.957 28.859398L250.957 28.859398C 250.291 27.478199 249.955 25.8838 249.955 24.0736C 249.955 23.133598 250.051 22.256 250.236 21.4408C 250.423 20.6254 250.701 19.8731 251.072 19.182499C 251.473 18.4296 251.95 17.813297 252.494 17.3339C 253.027 16.865997 253.626 16.530598 254.292 16.326797L254.292 16.326797L254.292 16.326797C 254.654 16.225998 255.016 16.1492 255.383 16.096298C 255.743 16.045898 256.11 16.0197 256.484 16.0197L256.484 16.0197L256.484 16.0197zM239.3 16.0197L247.327 16.0197L247.327 18.043198L240.118 18.043198C 239.787 18.043198 239.477 18.0793 239.185 18.146698C 238.885 18.213898 238.609 18.319 238.357 18.4558L238.357 18.4558L238.355 18.458298C 238.113 18.590199 237.876 18.753098 237.643 18.944798L237.643 18.944798L237.645 18.947098C 237.415 19.1391 237.195 19.354797 236.988 19.592197C 236.777 19.8344 236.593 20.0788 236.442 20.3232C 236.286 20.572998 236.164 20.822498 236.077 21.066898L236.077 21.066898L236.077 21.0718C 235.989 21.3162 235.926 21.5774 235.883 21.850899C 235.842 22.1245 235.821 22.4166 235.821 22.7235L235.821 22.7235L235.821 23.2244L236.324 23.2244L247.327 23.2244L247.327 25.322498L236.324 25.322498L235.821 25.322498L235.821 25.8236C 235.821 26.1596 235.845 26.478397 235.893 26.7757L235.893 26.7757L235.893 26.7757C 235.941 27.0803 236.013 27.353798 236.106 27.593498C 236.204 27.842598 236.339 28.092 236.509 28.3415C 236.674 28.5834 236.876 28.8256 237.113 29.072498C 237.35 29.3195 237.595 29.530598 237.837 29.705498C 238.091 29.887897 238.348 30.0294 238.602 30.129997C 238.852 30.2281 239.137 30.305 239.451 30.3554C 239.755 30.4031 240.081 30.427498 240.424 30.427498L240.424 30.427498L247.226 30.427498L247.226 32.5256L239.825 32.5256C 239.408 32.5256 239.022 32.5086 238.671 32.4725C 238.315 32.4391 237.981 32.384 237.672 32.314198C 237.367 32.244698 237.051 32.1488 236.727 32.028797L236.727 32.028797L236.727 32.028797C 236.401 31.9044 236.068 31.7579 235.73 31.585197L235.73 31.585197L235.732 31.583C 235.13 31.2687 234.593 30.858898 234.123 30.3601C 233.651 29.8545 233.241 29.252598 232.895 28.557198L232.895 28.557198L232.898 28.557198C 232.582 27.907398 232.344 27.2215 232.186 26.4999C 232.028 25.773197 231.949 25.006199 231.949 24.1982C 231.949 23.3807 232.03 22.5989 232.193 21.8606C 232.356 21.124298 232.603 20.4197 232.934 19.740997C 233.258 19.078999 233.654 18.508698 234.116 18.0313C 234.576 17.556599 235.113 17.168198 235.72 16.868698C 236.291 16.5882 236.878 16.3745 237.478 16.232998C 238.072 16.0918 238.681 16.0197 239.3 16.0197L239.3 16.0197L239.3 16.0197zM224.117 30.503899L230.143 30.503899L230.143 32.477398L214.138 32.477398L214.138 30.503899L220.066 30.503899L220.567 30.503899L220.567 30.000298L220.567 15.971699L223.617 15.971699L223.617 30.000298L223.617 30.503899L224.117 30.503899L224.117 30.503899zM212.017 22.5989L212.034 25.022999L204.011 25.022999L204.011 22.5989L212.017 22.5989L212.017 22.5989zM195.823 16.0197L200.607 16.0197L200.607 32.5256L197.358 32.5256L197.358 19.8965L197.358 18.168L196.432 19.630299L188.277 32.5256L183.425 32.5256L183.425 16.0197L186.599 16.0197L186.599 28.4757L186.599 30.158699L187.52 28.746498L195.823 16.0197L195.823 16.0197zM168.449 28.813698C 169.339 27.7033 169.787 26.233799 169.787 24.3998C 169.787 23.4334 169.705 22.579899 169.55 21.836597C 169.386 21.073898 169.139 20.4314 168.806 19.903797C 168.37 19.2132 167.773 18.693298 167.015 18.348099C 166.281 18.0125 165.402 17.844498 164.383 17.844498C 163.193 17.844498 162.181 18.0125 161.347 18.3503C 160.484 18.700397 159.813 19.2327 159.338 19.9422L159.338 19.9422L159.338 19.944798C 159.002 20.445698 158.753 21.078999 158.59 21.836597C 158.431 22.570297 158.352 23.423698 158.352 24.3998C 158.352 25.260399 158.453 26.0447 158.652 26.7543C 158.858 27.475899 159.165 28.1157 159.575 28.672398L159.575 28.672398L159.577 28.674599C 160.079 29.3507 160.702 29.8592 161.447 30.199497C 162.184 30.5355 163.028 30.703 163.982 30.703C 164.948 30.703 165.802 30.5471 166.543 30.2378C 167.3 29.923698 167.938 29.4468 168.449 28.815998L168.449 28.815998L168.449 28.813698L168.449 28.813698zM170.604 17.391098C 172.357 18.757797 173.235 21.059498 173.235 24.299C 173.235 25.771198 173.079 27.0369 172.77 28.0971L172.77 28.0971L172.767 28.0971C 172.465 29.1302 172.014 29.967098 171.42 30.6119L171.42 30.6119L171.42 30.6119C 170.033 32.0888 167.605 32.8251 164.131 32.8251C 162.538 32.8251 161.155 32.6284 159.975 32.2351C 158.82 31.849098 157.853 31.2687 157.084 30.496899L157.084 30.496899L157.081 30.496899C 156.376 29.7944 155.847 28.945698 155.494 27.957798L155.494 27.957798L155.492 27.957798C 155.132 26.958 154.955 25.8046 154.955 24.4977C 154.955 22.8964 155.156 21.5201 155.561 20.3693C 155.959 19.2472 156.549 18.338398 157.333 17.6451L157.333 17.6451L157.333 17.6478C 158.788 16.3624 161.081 15.719799 164.208 15.719799C 165.632 15.719799 166.883 15.863998 167.957 16.1465C 169.007 16.4249 169.89 16.842 170.604 17.391098L170.604 17.391098L170.604 17.391098L170.604 17.391098zM176.359 16.0197L180.034 16.0197L180.034 32.5256L176.359 32.5256L176.359 16.0197L176.359 16.0197zM151.807 20.400497C 151.874 20.7743 151.908 21.280598 151.908 21.9231L151.908 21.9231L151.908 32.5256L148.409 32.5256L148.409 22.0714C 148.409 21.8079 148.393 21.548798 148.361 21.3017L148.361 21.3017L148.361 21.3017C 148.327 21.054798 148.277 20.822498 148.21 20.6111C 148.141 20.388397 148.047 20.169998 147.927 19.9542C 147.807 19.743198 147.663 19.5349 147.496 19.3284L147.496 19.3284L147.496 19.3308C 147.258 19.0266 146.99 18.772099 146.692 18.566399L146.692 18.566399L146.692 18.566399C 146.393 18.3577 146.059 18.1969 145.698 18.088898C 145.443 18.014698 145.134 17.959599 144.774 17.9236C 144.42 17.8875 144.021 17.8709 143.58 17.8709L143.58 17.8709L138.48 17.8709L138.48 16.0197L144.28 16.0197C 145.177 16.0197 145.985 16.0723 146.704 16.178299C 147.417 16.281097 148.042 16.4346 148.582 16.638397L148.582 16.638397L148.585 16.638397C 149.239 16.882797 149.798 17.2137 150.26 17.631C 150.718 18.043198 151.083 18.5447 151.354 19.129398L151.354 19.129398L151.359 19.1391C 151.476 19.381199 151.574 19.6092 151.646 19.820099L151.646 19.820099L151.646 19.8227C 151.72 20.031097 151.773 20.222599 151.807 20.400497L151.807 20.400497L151.807 20.400497zM135.354 18.746098C 135.768 19.482399 135.977 20.381 135.977 21.447998L135.977 21.447998L135.977 32.5256L132.702 32.5256L132.702 22.323399C 132.702 21.673298 132.621 21.0956 132.457 20.5873C 132.29 20.0598 132.033 19.6162 131.69 19.253998L131.69 19.253998L131.688 19.251698C 131.283 18.827198 130.724 18.510899 130.012 18.307098C 129.34 18.1153 128.528 18.019398 127.574 18.019398C 127 18.019398 126.47 18.081497 125.984 18.203999C 125.488 18.328999 125.037 18.5181 124.632 18.772099C 124.061 19.1319 123.63 19.601898 123.342 20.1823C 123.061 20.7477 122.92 21.412098 122.92 22.1722L122.92 22.1722L122.92 32.5256L119.496 32.5256L119.496 21.6231C 119.496 20.6041 119.714 19.726799 120.146 18.995197C 120.577 18.2616 121.232 17.657398 122.107 17.184998L122.107 17.184998L122.112 17.184998C 123.533 16.408298 125.447 16.0197 127.849 16.0197C 129.096 16.0197 130.194 16.106098 131.144 16.276398L131.144 16.276398L131.144 16.276398C 132.079 16.441898 132.863 16.6888 133.498 17.015L133.498 17.015L133.498 17.015C 134.325 17.443699 134.944 18.022099 135.354 18.746098L135.354 18.746098L135.354 18.746098L135.354 18.746098z" stroke="none" fill="#0A3BCF" fill-rule="evenodd" />
        <path clip-path="url(#4)"  d="M0 73.9275L0 79.4283L32.4597 79.4283L32.4597 73.9275L0 73.9275zM0 63.615498L0 68.516L32.4597 68.516L32.4597 63.615498L0 63.615498L0 63.615498zM0 53.3039L0 58.204L32.4597 58.204L32.4597 53.3039L0 53.3039L0 53.3039zM0 42.9927L0 47.8926L32.4597 47.8926L32.4597 42.9927L0 42.9927L0 42.9927zM0.9414 32.6807C 0.563 34.2832 0.2936 35.918 0.1435 37.581398L0.1435 37.581398L32.9227 37.581398C 33.4607 35.771 34.4461 34.1078 35.771 32.6807L35.771 32.6807L0.9414 32.6807L0.9414 32.6807zM5.1376 22.3699C 4.1999 23.9468 3.3792 25.582897 2.6859 27.269798L2.6859 27.269798L45.3185 27.269798L45.3185 22.3699L5.1376 22.3699L5.1376 22.3699zM13.8479 12.057899C 12.0856 13.5793 10.4614 15.218597 8.9931 16.957798L8.9931 16.957798L45.3185 16.957798L45.3185 12.057899L13.8479 12.057899L13.8479 12.057899zM62.9731 57.902397L52.2679 57.902397L52.2679 79.4283L62.9731 79.4283L75.6077 79.4283L95.4336 79.4283L95.4336 40.752C 95.4336 29.5201 90.0674 19.311798 81.4298 11.923302C 73.3185 4.987297 62.2982 0.5196991 50.1116 0L50.1116 0L50.1116 27.8707C 53.3435 28.3149 56.2482 29.6414 58.4788 31.547699C 61.2495 33.9165 62.9731 37.1778 62.9731 40.752L62.9731 40.752L62.9731 57.902397L62.9731 57.902397zM45.3185 0C 36.5918 0.37179565 28.4649 2.768196 21.5757 6.646599L21.5757 6.646599L45.3185 6.646599L45.3185 0L45.3185 0z" stroke="none" fill="#0A3BCF" fill-rule="evenodd" />
        <path d="" stroke="none" fill="none" />
        <path d="" stroke="none" fill="none" />
        <path d="M0 0L284 0L284 80L0 80z" stroke="none" fill="none" />
        <path d="M0 0L284 0L284 80L0 80z" stroke="none" fill="none" />
	</g>
</g>
</svg>